<svg xmlns="http://www.w3.org/2000/svg" xmlns:xlink="http://www.w3.org/1999/xlink" width="500" zoomAndPan="magnify" viewBox="0 0 375 374.999991" height="500" preserveAspectRatio="xMidYMid meet" version="1.0"><defs><clipPath id="b14cf30f77"><path d="M 11.496094 4.402344 L 361 4.402344 L 361 370 L 11.496094 370 Z M 11.496094 4.402344 " clip-rule="nonzero"/></clipPath></defs><g clip-path="url(#b14cf30f77)"><path fill="#ee4d43" d="M 355.238281 97.503906 C 354.753906 95.964844 353.328125 94.847656 351.636719 95.144531 C 348.917969 95.632812 346.164062 95.503906 343.429688 96.453125 C 335.1875 99.3125 335.136719 99.15625 328.765625 92.785156 C 327.738281 91.757812 326.75 90.707031 325.671875 89.757812 C 322.992188 87.398438 320.226562 85.089844 316.828125 83.898438 C 309.660156 81.359375 302.25 82.21875 294.863281 82.550781 C 290.929688 82.730469 286.695312 84.347656 283.425781 80.34375 C 282.425781 79.113281 280.582031 78.910156 279.105469 79.5 C 275.835938 80.78125 274.453125 79.152344 273.632812 76.371094 C 272.796875 73.507812 270.722656 72.148438 267.925781 71.828125 C 265.65625 71.574219 263.796875 70.648438 261.9375 69.304688 C 259.59375 67.597656 257.132812 65.699219 253.847656 66.457031 C 252.542969 65.519531 251.027344 66.300781 249.542969 65.945312 C 243.914062 64.597656 238.859375 61.671875 233.15625 60.519531 C 227.886719 59.453125 228.410156 59.339844 228.269531 54.441406 C 228.078125 47.9375 226.410156 42.15625 218.921875 40.332031 C 217.257812 39.921875 216.820312 38.472656 216.511719 37.039062 C 215.332031 31.613281 213.078125 26.648438 210.167969 21.957031 C 209.230469 20.445312 208.078125 19.210938 206.550781 18.316406 C 204.027344 16.851562 202.023438 17.148438 200.179688 19.390625 C 198.769531 21.109375 197.871094 23.175781 196.652344 24.984375 C 194.882812 27.613281 193.28125 30.972656 189.320312 30.511719 C 186.484375 30.175781 183.613281 29.742188 180.84375 28.84375 C 176.191406 27.328125 171.871094 27.996094 168.332031 31.585938 C 166.304688 33.640625 164.652344 36.0625 162.546875 38.011719 C 160.277344 40.117188 158.011719 42.746094 154.636719 42.730469 C 150.507812 42.707031 146.433594 41.808594 142.40625 40.910156 C 141.84375 40.78125 141.035156 40.707031 140.996094 40.101562 C 140.816406 37.152344 138.933594 34.164062 141.214844 31.253906 C 142.792969 29.242188 143.253906 26.933594 142.648438 24.445312 C 142.304688 23.019531 142.546875 22.007812 143.714844 20.890625 C 146.074219 18.609375 145.058594 15.390625 141.867188 14.429688 C 140.546875 14.03125 139.214844 14.222656 137.867188 14.261719 C 135.625 14.339844 134.367188 12.761719 134.855469 10.632812 C 135.136719 9.425781 134.636719 8.351562 134.378906 7.246094 C 134.058594 5.863281 133.394531 4.632812 131.804688 4.527344 C 130.265625 4.4375 129.328125 5.414062 128.804688 6.785156 C 128.496094 7.582031 128.40625 8.621094 127.378906 8.785156 C 124.277344 9.285156 121.765625 11.3125 118.800781 12.109375 C 112.046875 13.929688 105.25 15.648438 98.453125 17.351562 C 95.441406 18.109375 93.800781 19.957031 93.671875 23.035156 C 93.558594 25.917969 93.597656 28.804688 93.492188 31.691406 C 93.390625 34.613281 92.542969 37.71875 95.839844 39.679688 C 96.210938 39.898438 96.339844 40.691406 96.402344 41.246094 C 96.761719 45.089844 95.851562 48.542969 92.917969 51.195312 C 91.351562 52.605469 89.671875 53.925781 87.953125 55.132812 C 82.453125 58.96875 74.582031 56.554688 72.082031 50.3125 C 71.082031 47.796875 70.375 45.207031 69.992188 42.527344 C 69.695312 40.449219 68.480469 38.988281 66.425781 38.988281 C 60.785156 39 55.105469 38.039062 49.492188 39.460938 C 47.105469 40.0625 45.003906 41.066406 44.683594 43.769531 C 44.296875 47.15625 42.566406 50.8125 46.347656 53.59375 C 48.734375 55.351562 49.15625 57.734375 47.683594 60.339844 C 46.976562 61.582031 46.054688 62.722656 45.207031 63.878906 C 42.925781 66.96875 42.925781 69.917969 45.4375 72.765625 C 47.015625 74.546875 47.722656 76.523438 47.59375 78.832031 C 47.464844 81.230469 47.375 83.640625 47.105469 86.027344 C 46.503906 91.269531 46.363281 91.335938 41.257812 89.910156 C 38.054688 89.015625 35.117188 88.808594 32.464844 91.5 C 26.179688 97.863281 19.769531 104.09375 13.398438 110.367188 C 12.398438 111.355469 11.640625 112.378906 11.65625 113.867188 C 11.707031 122.871094 14.757812 131.207031 17.359375 139.644531 C 17.695312 140.734375 18.269531 141.773438 18.875 142.746094 C 20.71875 145.734375 23.425781 145.902344 25.695312 143.234375 C 26.503906 142.285156 27.285156 141.324219 28.144531 140.425781 C 29.746094 138.746094 30.71875 139.4375 31.347656 141.335938 C 32.039062 143.464844 32.09375 145.683594 32.246094 147.890625 C 32.628906 153.199219 35.476562 155.996094 40.65625 156.121094 C 42.734375 156.171875 44.605469 156.777344 46.476562 157.609375 C 50.003906 159.175781 52.296875 158.96875 54.335938 155.867188 C 58.183594 150.003906 63.824219 146.464844 69.53125 142.875 C 74.222656 139.925781 79.273438 140.59375 83.144531 144.476562 C 86.351562 147.695312 87.351562 151.699219 87.773438 155.96875 C 88.070312 159.058594 88.96875 161.933594 91.773438 163.535156 C 96.6875 166.355469 101.761719 168.894531 106.726562 171.625 C 112.929688 175.039062 120.109375 176.511719 125.675781 181.195312 C 128.367188 186.167969 128.429688 191.683594 128.996094 197.109375 C 129.367188 200.636719 129.1875 204.214844 130.316406 207.664062 C 131.816406 212.292969 136.058594 213.613281 139.726562 210.496094 C 140.164062 210.125 140.574219 209.6875 141.058594 209.40625 C 141.96875 208.894531 143.007812 208.085938 143.996094 208.523438 C 145.074219 209.007812 144.84375 210.34375 144.84375 211.382812 C 144.855469 214.074219 144.636719 216.78125 144.84375 219.449219 C 145.125 223.230469 147.546875 225.886719 150.277344 225.15625 C 152.664062 224.511719 152.652344 225.515625 152.535156 227.195312 C 152.457031 228.347656 152.546875 229.515625 152.394531 230.65625 C 151.382812 238.441406 151.304688 246.148438 153.445312 253.816406 C 154.097656 256.175781 154.585938 258.625 155.136719 261.023438 C 156.445312 266.71875 158.046875 267.832031 163.445312 265.578125 C 166.011719 264.511719 168.5625 263.960938 171.28125 264.960938 C 171.894531 265.191406 172.585938 265.101562 172.585938 266.101562 C 172.613281 272.410156 175.792969 277.488281 179.371094 282.246094 C 181 284.402344 182.304688 287.402344 185.804688 287.390625 C 187.050781 282.761719 188.871094 278.425781 191.253906 274.386719 C 188.871094 278.425781 187.050781 282.761719 185.804688 287.390625 C 186.714844 291.019531 187.613281 294.648438 188.550781 298.265625 C 189.023438 300.097656 188.679688 301.148438 186.691406 302.035156 C 183.984375 303.214844 181.535156 304.996094 179.035156 306.601562 C 175.960938 308.574219 172.5625 310.511719 170.996094 313.859375 C 168.816406 318.539062 165.445312 321.796875 161.214844 324.464844 C 156.613281 327.363281 155.164062 331.671875 155.921875 336.890625 C 156.472656 340.738281 159.804688 342.316406 163.101562 340.289062 C 164.332031 339.53125 165.5625 338.789062 166.78125 338.019531 C 169.316406 336.402344 169.894531 336.6875 170.242188 339.738281 C 170.292969 340.210938 170.242188 340.699219 170.292969 341.175781 C 170.585938 344.148438 172.253906 345.226562 175.023438 344.277344 C 178.203125 343.175781 180.945312 344.304688 181.613281 347.625 C 183.113281 355.113281 187.792969 361 191.164062 367.527344 C 192.664062 370.414062 195.769531 370.425781 197.742188 367.785156 C 198.488281 366.785156 199.292969 365.71875 199.601562 364.550781 C 201.292969 358.21875 205.320312 355.011719 211.871094 354.730469 C 214.460938 354.625 216.089844 352.945312 216.769531 350.511719 C 218.246094 345.175781 221.011719 340.417969 223.425781 335.507812 C 224.808594 332.671875 226.667969 330.390625 229.898438 329.351562 C 233.167969 328.285156 234.707031 325.65625 234.898438 322.296875 C 235.386719 313.898438 237.527344 305.816406 239.824219 297.789062 C 240.746094 294.570312 242.359375 291.570312 243.144531 288.273438 C 245.105469 287.3125 245.359375 284.941406 246.925781 283.660156 C 253.375 278.363281 259.824219 273.078125 266.296875 267.820312 C 267.117188 267.152344 268.003906 266.667969 269.082031 267.691406 C 270.773438 269.28125 272.503906 268.769531 274.335938 267.667969 C 276.390625 266.421875 277.542969 264.394531 279.183594 262.804688 C 280.875 261.164062 281.773438 261.445312 282.363281 263.703125 C 282.941406 265.910156 284.582031 267.0625 286.621094 266.792969 C 290.363281 266.308594 294.09375 266.628906 297.824219 266.382812 C 302.328125 266.089844 304.503906 263.832031 304.839844 259.226562 C 305.019531 256.742188 305.183594 254.253906 305.441406 251.765625 C 305.570312 250.496094 305.851562 249.019531 307.46875 249.085938 C 311.710938 249.265625 312.75 246.441406 313.46875 243.132812 C 314.097656 240.222656 314.699219 237.210938 316.738281 234.925781 C 319.007812 232.386719 319.828125 229.476562 319.726562 226.195312 C 322.03125 225.578125 322.160156 223.140625 323.40625 221.640625 C 326.03125 218.5 326.929688 214.78125 325.597656 210.828125 C 322.441406 201.570312 323.226562 191.992188 323.417969 182.515625 C 323.519531 177.078125 325.941406 172.820312 331.265625 170.191406 C 335.46875 168.113281 340.097656 166.097656 341.804688 160.945312 C 343.007812 157.289062 344.429688 153.710938 345.507812 150.019531 C 346.355469 147.132812 348.007812 145.285156 350.609375 143.796875 C 354.613281 141.515625 358.113281 138.898438 359.523438 133.859375 C 363.046875 121.046875 358.945312 109.328125 355.238281 97.503906 Z M 250.515625 179.246094 C 251.144531 179.425781 251.785156 179.617188 252.414062 179.796875 C 251.785156 179.601562 251.144531 179.425781 250.515625 179.246094 Z M 254.503906 180.359375 C 254.542969 180.207031 254.59375 180.050781 254.632812 179.910156 C 254.578125 180.050781 254.542969 180.207031 254.503906 180.359375 Z M 256.425781 173.050781 C 257.015625 170.820312 257.59375 168.601562 258.222656 166.394531 C 257.605469 168.613281 257.015625 170.832031 256.425781 173.050781 Z M 256.425781 173.050781 " fill-opacity="1" fill-rule="nonzero"/></g><path fill="#ffc800" d="M 125.660156 181.195312 C 125.980469 178.566406 127.125 176.382812 129.46875 175.078125 C 131.855469 173.742188 131.726562 171.28125 131.945312 169.242188 C 132.609375 163.023438 133.058594 161.277344 126.289062 159.46875 C 122.957031 158.570312 121.226562 156.585938 120.496094 153.160156 C 119.496094 148.464844 118.265625 143.835938 118.210938 139.003906 C 118.1875 137.078125 119.007812 136.554688 120.878906 136.695312 C 129.699219 137.335938 138.546875 137.179688 147.394531 137.039062 C 149.6875 137 151.625 136.296875 152.0625 133.386719 C 152.382812 131.230469 153.316406 129.167969 154.074219 127.101562 C 154.742188 125.292969 155.867188 123.910156 157.957031 123.730469 C 160.191406 123.535156 160.457031 125.34375 161.152344 126.804688 C 162.316406 129.308594 163.023438 131.988281 165.074219 134.101562 C 168.101562 137.21875 171.125 138.734375 175.871094 138.515625 C 184.269531 138.117188 192.691406 139.386719 201.078125 140.335938 C 204.410156 140.707031 207.757812 140.9375 211.101562 141.15625 C 213.511719 141.3125 214.796875 142.015625 215.589844 144.796875 C 217.089844 150.042969 217.269531 155.390625 218.078125 160.675781 C 218.386719 162.703125 219.167969 164.546875 219.746094 166.472656 C 221.488281 172.253906 225.527344 175.292969 231.347656 176.320312 C 235.964844 177.128906 240.503906 178.230469 245.273438 178.296875 C 248.347656 178.347656 251.414062 179.628906 254.488281 180.359375 C 254.605469 181.707031 254.746094 183.144531 255.707031 184.09375 C 259.707031 188.082031 260.066406 193.183594 260.324219 198.351562 C 258.183594 197.863281 256.375 196.492188 254.132812 196.171875 C 250.953125 195.710938 249.476562 196.453125 248.285156 199.378906 C 247.324219 201.738281 247.027344 204.160156 246.988281 206.6875 C 246.886719 213.472656 244.875 219.292969 238.734375 223.128906 C 235.269531 225.28125 231.5 226.167969 227.566406 226.527344 C 216.511719 227.539062 214.207031 229.503906 211.152344 240.082031 C 210.039062 243.941406 208.589844 247.710938 207.257812 251.519531 C 205.742188 255.882812 202.371094 259.0625 200.039062 262.894531 C 198.371094 264.101562 197.359375 265.882812 196.101562 267.4375 C 191.253906 273.359375 187.753906 280.003906 185.78125 287.414062 C 182.28125 287.414062 180.972656 284.425781 179.34375 282.273438 C 175.765625 277.515625 172.585938 272.4375 172.5625 266.128906 C 172.5625 265.128906 171.871094 265.203125 171.253906 264.984375 C 168.535156 263.984375 165.984375 264.539062 163.421875 265.601562 C 158.023438 267.847656 156.421875 266.742188 155.113281 261.050781 C 154.5625 258.652344 154.085938 256.214844 153.417969 253.84375 C 151.292969 246.171875 151.355469 238.464844 152.367188 230.683594 C 152.523438 229.539062 152.417969 228.375 152.507812 227.21875 C 152.625 225.550781 152.636719 224.550781 150.253906 225.179688 C 147.523438 225.910156 145.097656 223.269531 144.816406 219.472656 C 144.625 216.792969 144.828125 214.101562 144.816406 211.40625 C 144.816406 210.367188 145.046875 209.035156 143.96875 208.546875 C 142.996094 208.113281 141.945312 208.90625 141.035156 209.433594 C 140.546875 209.714844 140.136719 210.152344 139.699219 210.523438 C 136.035156 213.625 131.789062 212.316406 130.289062 207.6875 C 129.175781 204.238281 129.339844 200.660156 128.96875 197.132812 C 128.429688 191.683594 128.367188 186.167969 125.660156 181.195312 Z M 125.660156 181.195312 " fill-opacity="1" fill-rule="nonzero"/><path fill="#b3c156" d="M 260.324219 198.351562 C 260.066406 193.183594 259.707031 188.082031 255.707031 184.09375 C 254.746094 183.144531 254.605469 181.707031 254.488281 180.359375 C 256.15625 174.167969 257.683594 167.921875 259.554688 161.777344 C 260.414062 158.957031 260.027344 156.6875 258.015625 154.761719 C 252.785156 149.773438 252.773438 143.492188 253.683594 137.089844 C 254.246094 133.117188 253.746094 130 249.898438 127.78125 C 246.886719 126.050781 244.9375 123.230469 244.269531 119.753906 C 243.269531 114.46875 240.835938 110.082031 236.898438 106.402344 C 234.476562 104.132812 234.308594 101.941406 236.398438 99.554688 C 244.734375 90.066406 249.953125 78.945312 253.667969 67.019531 C 253.722656 66.839844 253.773438 66.648438 253.824219 66.46875 C 257.117188 65.710938 259.566406 67.609375 261.914062 69.316406 C 263.773438 70.664062 265.632812 71.585938 267.902344 71.84375 C 270.695312 72.148438 272.773438 73.507812 273.605469 76.382812 C 274.414062 79.164062 275.8125 80.792969 279.082031 79.511719 C 280.554688 78.933594 282.402344 79.140625 283.402344 80.359375 C 286.660156 84.347656 290.902344 82.730469 294.839844 82.5625 C 302.222656 82.230469 309.632812 81.371094 316.800781 83.910156 C 320.199219 85.117188 322.96875 87.421875 325.648438 89.769531 C 326.726562 90.71875 327.726562 91.785156 328.738281 92.796875 C 335.097656 99.171875 335.148438 99.324219 343.40625 96.464844 C 346.136719 95.515625 348.894531 95.65625 351.609375 95.15625 C 353.289062 94.847656 354.726562 95.964844 355.214844 97.515625 C 358.917969 109.339844 363.023438 121.0625 359.457031 133.847656 C 358.046875 138.886719 354.546875 141.503906 350.546875 143.785156 C 347.929688 145.273438 346.277344 147.132812 345.445312 150.003906 C 344.367188 153.6875 342.945312 157.277344 341.738281 160.929688 C 340.035156 166.085938 335.40625 168.101562 331.199219 170.179688 C 325.878906 172.808594 323.46875 177.078125 323.351562 182.5 C 323.171875 191.980469 322.390625 201.558594 325.53125 210.816406 C 326.878906 214.765625 325.96875 218.484375 323.339844 221.628906 C 322.082031 223.128906 321.96875 225.550781 319.660156 226.179688 C 319.046875 225.566406 318.492188 224.886719 317.828125 224.347656 C 310.773438 218.679688 305.503906 211.777344 303.003906 202.941406 C 302.492188 201.148438 301.132812 200.171875 299.46875 199.402344 C 292.839844 196.378906 286.171875 193.390625 280.015625 189.441406 C 278.671875 188.566406 277.402344 188.515625 275.953125 189.132812 C 271.683594 190.964844 267.722656 193.222656 264.222656 196.339844 C 263.171875 197.289062 262.296875 198.980469 260.324219 198.351562 Z M 260.324219 198.351562 " fill-opacity="1" fill-rule="nonzero"/><path fill="#58c5b0" d="M 260.324219 198.351562 C 262.296875 198.980469 263.171875 197.289062 264.246094 196.324219 C 267.746094 193.222656 271.707031 190.953125 275.976562 189.117188 C 277.425781 188.503906 278.695312 188.554688 280.042969 189.425781 C 286.195312 193.390625 292.863281 196.363281 299.492188 199.390625 C 301.160156 200.148438 302.519531 201.121094 303.03125 202.929688 C 305.53125 211.765625 310.800781 218.664062 317.851562 224.332031 C 318.519531 224.871094 319.082031 225.550781 319.6875 226.167969 C 319.800781 229.464844 318.96875 232.363281 316.699219 234.902344 C 314.660156 237.195312 314.070312 240.199219 313.429688 243.109375 C 312.710938 246.429688 311.671875 249.238281 307.429688 249.058594 C 305.8125 248.996094 305.53125 250.46875 305.402344 251.738281 C 305.148438 254.226562 304.980469 256.714844 304.800781 259.203125 C 304.46875 263.804688 302.289062 266.0625 297.789062 266.359375 C 294.054688 266.601562 290.324219 266.28125 286.582031 266.769531 C 284.542969 267.039062 282.902344 265.882812 282.324219 263.679688 C 281.734375 261.421875 280.835938 261.140625 279.144531 262.78125 C 277.503906 264.371094 276.351562 266.410156 274.300781 267.640625 C 272.476562 268.742188 270.734375 269.257812 269.042969 267.667969 C 267.953125 266.640625 267.082031 267.128906 266.261719 267.792969 C 259.785156 273.054688 253.324219 278.335938 246.886719 283.632812 C 245.324219 284.914062 245.066406 287.289062 243.105469 288.25 C 241.898438 286.054688 239.785156 285.132812 237.605469 284.324219 C 231.105469 281.941406 226.371094 277.835938 224.386719 270.976562 C 223.9375 269.410156 223.191406 267.9375 222.601562 266.410156 C 222 264.832031 220.871094 263.894531 219.230469 263.574219 C 216.589844 263.0625 213.976562 262.804688 211.242188 262.871094 C 207.511719 262.960938 203.757812 264.949219 200.039062 262.871094 C 202.371094 259.035156 205.742188 255.855469 207.257812 251.496094 C 208.578125 247.6875 210.039062 243.929688 211.152344 240.054688 C 214.207031 229.476562 216.511719 227.527344 227.566406 226.5 C 231.5 226.140625 235.269531 225.257812 238.734375 223.101562 C 244.875 219.269531 246.886719 213.445312 246.988281 206.664062 C 247.027344 204.136719 247.324219 201.710938 248.285156 199.351562 C 249.476562 196.429688 250.953125 195.683594 254.132812 196.148438 C 256.375 196.492188 258.183594 197.863281 260.324219 198.351562 Z M 260.324219 198.351562 " fill-opacity="1" fill-rule="nonzero"/><path fill="#fca294" d="M 200.050781 262.882812 C 203.769531 264.960938 207.539062 262.972656 211.257812 262.882812 C 213.988281 262.820312 216.601562 263.089844 219.246094 263.589844 C 220.871094 263.910156 222.015625 264.84375 222.617188 266.421875 C 223.207031 267.949219 223.9375 269.421875 224.398438 270.988281 C 226.398438 277.847656 231.128906 281.953125 237.617188 284.339844 C 239.796875 285.144531 241.925781 286.054688 243.117188 288.261719 C 242.347656 291.558594 240.71875 294.558594 239.796875 297.777344 C 237.5 305.804688 235.359375 313.871094 234.875 322.285156 C 234.679688 325.644531 233.140625 328.273438 229.875 329.335938 C 226.640625 330.390625 224.78125 332.660156 223.398438 335.492188 C 220.988281 340.40625 218.21875 345.164062 216.746094 350.496094 C 216.066406 352.945312 214.4375 354.613281 211.847656 354.714844 C 205.292969 354.984375 201.269531 358.203125 199.578125 364.539062 C 199.269531 365.707031 198.460938 366.785156 197.71875 367.773438 C 195.742188 370.425781 192.640625 370.414062 191.140625 367.515625 C 187.769531 360.988281 183.074219 355.101562 181.589844 347.613281 C 180.921875 344.289062 178.179688 343.164062 175 344.265625 C 172.230469 345.226562 170.5625 344.136719 170.265625 341.160156 C 170.214844 340.6875 170.265625 340.199219 170.214844 339.726562 C 169.855469 336.671875 169.28125 336.390625 166.753906 338.007812 C 165.535156 338.777344 164.304688 339.519531 163.074219 340.277344 C 159.777344 342.304688 156.445312 340.726562 155.894531 336.878906 C 155.152344 331.660156 156.597656 327.351562 161.191406 324.453125 C 165.421875 321.796875 168.792969 318.527344 170.972656 313.847656 C 172.535156 310.488281 175.921875 308.5625 179.011719 306.585938 C 181.511719 304.984375 183.972656 303.203125 186.664062 302.023438 C 188.664062 301.148438 189.011719 300.085938 188.523438 298.253906 C 187.574219 294.636719 186.691406 291.007812 185.78125 287.378906 C 187.769531 279.964844 191.253906 273.320312 196.101562 267.398438 C 197.371094 265.871094 198.382812 264.089844 200.050781 262.882812 Z M 200.050781 262.882812 " fill-opacity="1" fill-rule="nonzero"/></svg>